# xmcd
#
# Track frame offsets:
#	150
#	15395
#	29060
#	40910
#	54672
#	72542
#	87837
#	105337
#	122815
#	138300
#	156620
#	174125
#	191170
#	204405
#	222822
#	238685
#	255312
#	276872
#	288715
#	303722
#
# Disc length: 4232
#
# Revision: 1
# Processed by: cddbd v1.5.1PL0 Copyright (c) Steve Scherf et al.
# Submitted via: FreeRIP 2.90 
# Normalized: r0:TDELIM( - ),TSWAP
#
DISCID=2a108614
DTITLE=Various Artist - Simply The Best Line Dancing Album [CD2]
DYEAR=1900
DGENRE=Country
TTITLE0=STEPS - 5,6,7,8
TTITLE1=The Mavericks - She Does
TTITLE2=Bryan White - Rockin Robin
TTITLE3=Olsen Brothers - Do You Wanna Dance
TTITLE4=George Strait - Run
TTITLE5=Billy Ray Cyrus - Achy Breaky Heart
TTITLE6=Michael Martin Murphey - I'm Gonna Miss You Girl
TTITLE7=Reba McEntire - Forever Love
TTITLE8=Phil Vassar - Joe and Rosalita
TTITLE9=Lace - I Want A Man
TTITLE10=Neal McCoy - This Time I'm Takin My Time
TTITLE11=Chalee Tennison - Under Your Skin
TTITLE12=Confederate Railroad - Toss A Little Bone (Party Mix)
TTITLE13=Lila McCann - Yippy Ky Yay
TTITLE14=Michael Peterson - Stomp
TTITLE15=Leann Rimes - Love Must Be Telling Me Something
TTITLE16=Dwight Yoakam - Fast As You
TTITLE17=Joni Harms - Two Steppin' Texas Blue
TTITLE18=The Forester Sisters - Men
TTITLE19=The Lynns - Cry Cry Baby
EXTD=
EXTT0=
EXTT1=
EXTT2=
EXTT3=
EXTT4=
EXTT5=
EXTT6=
EXTT7=
EXTT8=
EXTT9=
EXTT10=
EXTT11=
EXTT12=
EXTT13=
EXTT14=
EXTT15=
EXTT16=
EXTT17=
EXTT18=
EXTT19=
PLAYORDER=
